<svg xmlns="http://www.w3.org/2000/svg" width="200" height="200" viewBox="0 0 200 200">
  <!-- Central Circle -->
  <circle cx="100" cy="100" r="30" fill="#ffffff" />
  
  <!-- Arrow down -->
  <path class="arrow" d="M80,155 l20,20 20,-20" fill="#ffffff" stroke="#ffffff" stroke-width="12"/>
  <!-- Arrow up -->
  <path class="arrow" d="M80,155 l20,20 20,-20" fill="#ffffff" stroke="#ffffff" stroke-width="12" transform="rotate(180 100 100)"/>
  <!-- Arrow left -->
  <path class="arrow" d="M80,155 l20,20 20,-20" fill="#ffffff" stroke="#ffffff" stroke-width="12" transform="rotate(90 100 100)"/>
  <!-- Arrow right -->
  <path class="arrow" d="M80,155 l20,20 20,-20" fill="#ffffff" stroke="#ffffff" stroke-width="12" transform="rotate(-90 100 100)"/>
  <!-- Arrow down left -->
  <path class="arrow" d="M80,155 l20,20 20,-20" fill="#ffffff" stroke="#ffffff" stroke-width="12" transform="rotate(45 100 100)"/>
  <!-- Arrow down right -->
  <path class="arrow" d="M80,155 l20,20 20,-20" fill="#ffffff" stroke="#ffffff" stroke-width="12" transform="rotate(-45 100 100)"/>
  <!-- Arrow up left -->
  <path class="arrow" d="M80,155 l20,20 20,-20" fill="#ffffff" stroke="#ffffff" stroke-width="12" transform="rotate(135 100 100)"/>
  <!-- Arrow up right-->
  <path class="arrow" d="M80,155 l20,20 20,-20" fill="#ffffff" stroke="#ffffff" stroke-width="12" transform="rotate(-135 100 100)"/>


</svg>
